<svg width="134" height="27" viewBox="0 0 134 27" fill="none" xmlns="http://www.w3.org/2000/svg">
<path d="M6.6999 21H11.333V4.53662H17.3064V0.602892H0.72646V4.53662H6.6999V21ZM23.5692 21.2331C27.7651 21.2331 30.6499 18.902 31.2618 15.6968H26.6287C26.3373 16.804 25.2592 17.5034 23.5692 17.5034C21.5003 17.5034 20.0142 16.3669 19.6646 13.9776H31.2909C32.0194 8.7326 28.785 4.62404 23.3943 4.62404C18.6447 4.62404 15.2355 8.09155 15.2355 12.9286C15.2355 17.7656 18.4116 21.2331 23.5692 21.2331ZM19.8394 10.7432C20.3348 8.93657 21.5295 8.03327 23.3943 8.03327C25.2592 8.03327 26.5122 9.08226 26.5996 10.7432H19.8394ZM38.2646 21.2331C40.2752 21.2331 42.0527 20.4755 42.8103 19.1934V21H47.3268V11.1511C47.3268 6.86772 44.2381 4.62404 39.9547 4.62404C35.9627 4.62404 32.9905 7.12997 32.6117 10.5683H36.9243C37.0991 8.93657 38.2938 8.03327 39.8964 8.03327C41.6447 8.03327 42.8103 8.96571 42.8103 10.6266V10.8306L39.5176 11.1802C34.7097 11.6756 32.6117 13.4822 32.6117 16.5126C32.6117 19.3682 34.7971 21.2331 38.2646 21.2331ZM37.1282 16.3087C37.1282 15.3179 37.8858 14.5895 39.605 14.4146L42.8103 14.065C42.7229 16.3961 41.3242 17.8822 39.1971 17.8822C37.9441 17.8822 37.1282 17.2411 37.1282 16.3087ZM69.238 4.62404C67.2565 4.62404 65.2168 5.41078 63.7308 7.24652C62.8857 5.64389 61.0791 4.62404 58.8355 4.62404C56.65 4.62404 54.8726 5.67303 54.1733 6.72203V4.85715H49.6568V21H54.1733V13.861C54.1733 10.4226 55.4262 8.5869 57.4659 8.5869C59.1268 8.5869 60.0301 9.75245 60.0301 11.6173V21H64.5466V13.861C64.5466 10.4518 65.7705 8.5869 67.8393 8.5869C69.5002 8.5869 70.3744 9.75245 70.3744 11.6173V21H74.8909V10.4518C74.8909 6.95513 72.5889 4.62404 69.238 4.62404ZM81.1018 21H85.2977L88.4739 11.5299L91.65 21H95.846L101.732 4.85715H96.9824L93.8062 14.8517L90.6301 4.85715H86.4633L83.3163 14.8517L80.111 4.85715H75.2449L81.1018 21ZM107.257 21.2331C109.268 21.2331 111.045 20.4755 111.803 19.1934V21H116.32V11.1511C116.32 6.86772 113.231 4.62404 108.947 4.62404C104.955 4.62404 101.983 7.12997 101.604 10.5683H105.917C106.092 8.93657 107.287 8.03327 108.889 8.03327C110.637 8.03327 111.803 8.96571 111.803 10.6266V10.8306L108.51 11.1802C103.702 11.6756 101.604 13.4822 101.604 16.5126C101.604 19.3682 103.79 21.2331 107.257 21.2331ZM106.121 16.3087C106.121 15.3179 106.879 14.5895 108.598 14.4146L111.803 14.065C111.716 16.3961 110.317 17.8822 108.19 17.8822C106.937 17.8822 106.121 17.2411 106.121 16.3087ZM120.267 26.3032H124.988L133.584 4.85715H128.834L125.075 14.8517L121.258 4.85715H116.392L122.715 20.5629L120.267 26.3032Z" fill="#1E1515"/>
</svg>
